<?xml version="1.0" encoding="UTF-8"?>
<svg xmlns="http://www.w3.org/2000/svg" xmlns:xlink="http://www.w3.org/1999/xlink" width="810pt" height="809.999993pt" viewBox="0 0 810 809.999993" version="1.2">
<g id="surface1">
<path style=" stroke:none;fill-rule:nonzero;fill:rgb(21.569824%,27.839661%,30.979919%);fill-opacity:1;" d="M 309.191406 259.375 L 213.117188 306.574219 L 292.386719 495.386719 L 406.539062 551.457031 L 406.539062 285.351562 Z M 309.191406 259.375 "/>
<path style=" stroke:none;fill-rule:nonzero;fill:rgb(21.569824%,27.839661%,30.979919%);fill-opacity:1;" d="M 406.539062 556.210938 C 405.902344 556.210938 404.953125 555.894531 404.316406 555.578125 L 290.167969 499.503906 C 289.214844 498.871094 288.265625 498.238281 287.949219 496.96875 L 208.675781 308.160156 C 207.726562 305.941406 208.675781 303.089844 210.898438 302.140625 L 306.972656 254.9375 C 307.925781 254.304688 309.191406 254.304688 310.460938 254.621094 L 407.804688 280.914062 C 410.027344 281.550781 411.292969 283.449219 411.292969 285.351562 L 411.292969 551.457031 C 411.292969 553.042969 410.34375 554.625 409.074219 555.578125 C 408.441406 555.894531 407.488281 556.210938 406.539062 556.210938 Z M 296.191406 491.902344 L 401.78125 543.855469 L 401.78125 289.152344 L 309.828125 264.441406 L 219.140625 308.792969 Z M 296.191406 491.902344 "/>
<path style=" stroke:none;fill-rule:nonzero;fill:rgb(21.569824%,27.839661%,30.979919%);fill-opacity:1;" d="M 500.710938 259.375 L 596.789062 306.574219 L 517.515625 495.386719 L 403.367188 551.457031 L 403.367188 285.351562 Z M 500.710938 259.375 "/>
<path style=" stroke:none;fill-rule:nonzero;fill:rgb(21.569824%,27.839661%,30.979919%);fill-opacity:1;" d="M 403.367188 556.210938 C 402.414062 556.210938 401.464844 555.894531 400.832031 555.578125 C 399.5625 554.625 398.609375 553.042969 398.609375 551.457031 L 398.609375 285.351562 C 398.609375 283.132812 400.195312 281.230469 402.097656 280.914062 L 499.445312 254.621094 C 500.710938 254.304688 501.664062 254.304688 502.929688 254.9375 L 599.007812 302.140625 C 601.226562 303.40625 602.179688 305.941406 601.226562 308.160156 L 521.957031 496.96875 C 521.640625 497.921875 520.6875 498.871094 519.738281 499.503906 L 405.585938 555.578125 C 404.953125 555.894531 404 556.210938 403.367188 556.210938 Z M 408.125 289.152344 L 408.125 543.855469 L 513.710938 492.21875 L 590.445312 309.109375 L 500.394531 264.441406 Z M 408.125 289.152344 "/>
<path style=" stroke:none;fill-rule:nonzero;fill:rgb(100%,100%,100%);fill-opacity:1;" d="M 409.707031 479.863281 L 517.199219 267.609375 L 480.734375 245.433594 L 404.953125 296.121094 L 329.484375 245.433594 L 292.703125 267.609375 L 400.195312 479.863281 L 400.195312 494.117188 L 404.953125 486.832031 L 409.707031 494.117188 Z M 409.707031 479.863281 "/>
<path style=" stroke:none;fill-rule:nonzero;fill:rgb(21.569824%,27.839661%,30.979919%);fill-opacity:1;" d="M 414.464844 509.640625 L 404.953125 495.386719 L 395.441406 509.640625 L 395.441406 481.128906 L 286.679688 265.710938 L 329.804688 239.730469 L 404.953125 290.101562 L 480.417969 239.730469 L 523.226562 265.710938 L 414.464844 480.8125 Z M 299.046875 269.195312 L 404.953125 478.277344 L 405.269531 477.328125 L 510.859375 268.878906 L 480.734375 250.503906 L 404.953125 301.824219 L 329.167969 251.136719 Z M 299.046875 269.195312 "/>
<path style=" stroke:none;fill-rule:nonzero;fill:rgb(100%,100%,100%);fill-opacity:1;" d="M 384.34375 325.582031 L 315.21875 249.234375 L 343.4375 226.109375 L 401.78125 248.601562 Z M 384.34375 325.582031 "/>
<path style=" stroke:none;fill-rule:nonzero;fill:rgb(21.569824%,27.839661%,30.979919%);fill-opacity:1;" d="M 384.34375 330.652344 C 383.074219 330.652344 381.488281 330.019531 380.535156 329.066406 L 311.730469 252.402344 C 310.777344 251.453125 310.460938 250.1875 310.460938 248.601562 C 310.460938 247.335938 311.09375 246.066406 312.363281 245.117188 L 340.585938 221.992188 C 341.851562 220.722656 343.753906 220.40625 345.65625 221.039062 L 404 243.535156 C 406.21875 244.484375 407.488281 246.703125 407.171875 249.234375 L 389.097656 326.851562 C 388.78125 328.75 387.195312 330.019531 385.609375 330.652344 Z M 322.511719 249.871094 L 381.488281 315.445312 L 395.757812 251.769531 L 344.070312 231.8125 Z M 322.511719 249.871094 "/>
<path style=" stroke:none;fill-rule:nonzero;fill:rgb(100%,100%,100%);fill-opacity:1;" d="M 425.878906 325.582031 L 494.6875 249.234375 L 466.464844 226.109375 L 408.125 248.601562 Z M 425.878906 325.582031 "/>
<path style=" stroke:none;fill-rule:nonzero;fill:rgb(21.569824%,27.839661%,30.979919%);fill-opacity:1;" d="M 425.878906 330.652344 L 424.613281 330.652344 C 422.710938 330.335938 421.441406 328.75 421.125 326.851562 L 403.683594 249.871094 C 403.050781 247.335938 404.316406 245.117188 406.855469 244.167969 L 465.199219 221.675781 C 466.785156 221.039062 468.6875 221.359375 470.273438 222.625 L 498.492188 245.75 C 499.445312 246.703125 500.078125 247.96875 500.394531 249.234375 C 500.394531 250.503906 500.078125 251.769531 499.125 253.039062 L 429.367188 329.066406 C 428.417969 330.019531 427.148438 330.652344 425.878906 330.652344 Z M 414.148438 251.769531 L 428.734375 315.445312 L 487.394531 249.871094 L 465.515625 231.8125 Z M 414.148438 251.769531 "/>
<path style=" stroke:none;fill-rule:nonzero;fill:rgb(21.569824%,27.839661%,30.979919%);fill-opacity:1;" d="M 395.441406 275.847656 L 378.632812 418.722656 L 403.367188 479.546875 L 403.367188 254.621094 Z M 395.441406 275.847656 "/>
<path style=" stroke:none;fill-rule:nonzero;fill:rgb(21.569824%,27.839661%,30.979919%);fill-opacity:1;" d="M 403.367188 484.296875 C 401.464844 484.296875 399.5625 483.03125 398.929688 481.445312 L 374.195312 420.621094 C 373.878906 419.988281 373.878906 419.039062 373.878906 418.40625 L 390.683594 275.53125 C 390.683594 275.214844 390.683594 274.894531 391 274.578125 L 398.929688 253.355469 C 399.878906 251.136719 402.097656 249.871094 404.316406 250.1875 C 406.539062 250.503906 408.125 252.71875 408.125 254.9375 L 408.125 479.863281 C 408.125 482.082031 406.539062 483.980469 404.316406 484.613281 C 404 484.296875 403.683594 484.296875 403.367188 484.296875 Z M 383.390625 418.085938 L 398.609375 455.152344 L 398.609375 290.101562 Z M 383.390625 418.085938 "/>
<path style=" stroke:none;fill-rule:nonzero;fill:rgb(21.569824%,27.839661%,30.979919%);fill-opacity:1;" d="M 414.148438 276.480469 L 431.269531 418.722656 L 406.539062 479.546875 L 406.539062 263.808594 Z M 414.148438 276.480469 "/>
<path style=" stroke:none;fill-rule:nonzero;fill:rgb(21.569824%,27.839661%,30.979919%);fill-opacity:1;" d="M 406.539062 484.296875 L 405.585938 484.296875 C 403.367188 483.980469 401.78125 481.761719 401.78125 479.546875 L 401.78125 263.808594 C 401.78125 261.589844 403.367188 259.691406 405.269531 259.375 C 407.488281 258.738281 409.390625 259.691406 410.660156 261.589844 L 418.269531 274.261719 C 418.585938 274.894531 418.902344 275.53125 418.902344 276.164062 L 436.027344 418.40625 C 436.027344 419.355469 436.027344 419.988281 435.710938 420.621094 L 410.976562 481.445312 C 410.34375 483.03125 408.441406 484.296875 406.539062 484.296875 Z M 411.292969 292.320312 L 411.292969 455.152344 L 426.515625 418.085938 Z M 411.292969 292.320312 "/>
<path style=" stroke:none;fill-rule:nonzero;fill:rgb(100%,67.059326%,0%);fill-opacity:1;" d="M 392.269531 373.101562 L 417.636719 373.101562 L 417.636719 385.773438 L 392.269531 385.773438 Z M 392.269531 373.101562 "/>
<path style=" stroke:none;fill-rule:nonzero;fill:rgb(100%,67.059326%,0%);fill-opacity:1;" d="M 488.664062 365.816406 L 508.957031 327.167969 L 520.371094 348.394531 L 528.296875 339.839844 L 550.8125 362.332031 Z M 488.664062 365.816406 "/>
<path style=" stroke:none;fill-rule:nonzero;fill:rgb(21.569824%,27.839661%,30.979919%);fill-opacity:1;" d="M 431.90625 218.191406 C 431.90625 215.65625 433.808594 213.753906 436.34375 213.753906 C 438.878906 213.753906 440.78125 215.65625 440.78125 218.191406 C 440.78125 220.40625 438.878906 222.625 436.34375 222.625 C 433.808594 222.941406 431.585938 220.722656 431.90625 218.191406 Z M 431.90625 218.191406 "/>
<path style=" stroke:none;fill-rule:nonzero;fill:rgb(21.569824%,27.839661%,30.979919%);fill-opacity:1;" d="M 436.027344 224.527344 C 434.441406 224.527344 432.855469 223.890625 431.90625 222.625 C 430.636719 221.359375 430.003906 219.773438 430.003906 218.191406 C 430.003906 216.605469 430.636719 215.023438 431.585938 214.070312 C 432.855469 212.804688 434.125 212.171875 435.710938 212.171875 C 439.199219 212.171875 441.734375 215.023438 441.734375 218.191406 C 441.734375 219.773438 441.101562 221.359375 440.148438 222.308594 C 439.199219 223.574219 437.613281 224.527344 436.027344 224.527344 Z M 436.027344 215.339844 C 435.390625 215.339844 434.441406 215.65625 434.125 216.289062 C 433.488281 216.921875 433.171875 217.554688 433.171875 218.191406 C 433.171875 219.140625 433.488281 219.773438 434.125 220.40625 C 435.074219 221.359375 436.976562 221.359375 438.246094 220.40625 C 438.878906 219.773438 439.199219 219.140625 439.199219 218.507812 C 439.199219 216.605469 437.613281 215.339844 436.027344 215.339844 Z M 436.027344 215.339844 "/>
<path style=" stroke:none;fill-rule:nonzero;fill:rgb(21.569824%,27.839661%,30.979919%);fill-opacity:1;" d="M 400.511719 218.191406 C 400.511719 215.65625 402.414062 213.753906 404.953125 213.753906 C 407.488281 213.753906 409.390625 215.65625 409.390625 218.191406 C 409.390625 220.40625 407.171875 222.625 404.953125 222.625 C 402.414062 222.625 400.511719 220.722656 400.511719 218.191406 Z M 400.511719 218.191406 "/>
<path style=" stroke:none;fill-rule:nonzero;fill:rgb(21.569824%,27.839661%,30.979919%);fill-opacity:1;" d="M 404.953125 224.527344 C 401.78125 224.207031 398.929688 221.675781 398.929688 218.507812 C 398.929688 215.023438 401.78125 212.488281 404.953125 212.488281 C 408.441406 212.488281 410.976562 215.339844 410.976562 218.507812 C 410.976562 221.675781 408.125 224.527344 404.953125 224.527344 Z M 404.953125 215.339844 C 403.367188 215.339844 402.097656 216.605469 402.097656 218.191406 C 402.097656 219.773438 403.367188 221.039062 404.953125 221.039062 C 406.539062 221.039062 407.804688 219.457031 407.804688 218.191406 C 407.804688 216.605469 406.539062 215.339844 404.953125 215.339844 Z M 404.953125 215.339844 "/>
<path style=" stroke:none;fill-rule:nonzero;fill:rgb(21.569824%,27.839661%,30.979919%);fill-opacity:1;" d="M 369.121094 218.191406 C 369.121094 215.65625 371.023438 213.753906 373.5625 213.753906 C 376.097656 213.753906 378 215.65625 378 218.191406 C 378 220.722656 376.097656 222.625 373.5625 222.625 C 371.339844 222.625 369.121094 220.722656 369.121094 218.191406 Z M 369.121094 218.191406 "/>
<path style=" stroke:none;fill-rule:nonzero;fill:rgb(21.569824%,27.839661%,30.979919%);fill-opacity:1;" d="M 373.5625 224.527344 C 370.074219 224.207031 367.535156 221.359375 367.535156 218.507812 C 367.535156 216.921875 368.171875 215.339844 369.121094 214.386719 C 371.339844 211.855469 375.464844 212.171875 377.683594 214.386719 C 378.953125 215.65625 379.269531 216.921875 379.269531 218.824219 C 379.585938 221.675781 377.050781 224.527344 373.5625 224.527344 Z M 373.5625 215.339844 C 372.925781 215.339844 371.976562 215.65625 371.660156 216.289062 C 371.023438 216.921875 370.707031 217.554688 371.023438 218.191406 C 371.023438 219.773438 372.292969 221.039062 373.878906 221.039062 C 375.464844 221.039062 376.730469 219.773438 376.730469 218.191406 C 376.730469 217.238281 376.414062 216.605469 376.097656 215.972656 C 375.144531 215.65625 374.511719 215.339844 373.5625 215.339844 Z M 373.5625 215.339844 "/>
</g>
</svg>
