<?xml version="1.0" encoding="UTF-8"?>
<svg xmlns="http://www.w3.org/2000/svg" xmlns:xlink="http://www.w3.org/1999/xlink" width="810pt" height="809.999993pt" viewBox="0 0 810 809.999993" version="1.2">
<g id="surface1">
<path style=" stroke:none;fill-rule:nonzero;fill:rgb(21.569824%,27.839661%,30.979919%);fill-opacity:1;" d="M 218.5625 168.316406 L 45.976562 253.300781 L 188.375 593.246094 L 393.421875 694.203125 L 393.421875 215.085938 Z M 218.5625 168.316406 "/>
<path style=" stroke:none;fill-rule:nonzero;fill:rgb(21.569824%,27.839661%,30.979919%);fill-opacity:1;" d="M 393.421875 702.761719 C 392.285156 702.761719 390.574219 702.191406 389.4375 701.621094 L 184.386719 600.664062 C 182.675781 599.523438 180.96875 598.382812 180.398438 596.101562 L 38.003906 256.152344 C 36.292969 252.160156 38.003906 247.027344 41.992188 245.316406 L 214.574219 160.332031 C 216.28125 159.191406 218.5625 159.191406 220.839844 159.761719 L 395.703125 207.101562 C 399.6875 208.242188 401.96875 211.664062 401.96875 215.085938 L 401.96875 694.203125 C 401.96875 697.058594 400.257812 699.910156 397.980469 701.621094 C 396.839844 702.191406 395.132812 702.761719 393.421875 702.761719 Z M 195.207031 586.972656 L 384.878906 680.515625 L 384.878906 221.929688 L 219.699219 177.441406 L 56.800781 257.292969 Z M 195.207031 586.972656 "/>
<path style=" stroke:none;fill-rule:nonzero;fill:rgb(21.569824%,27.839661%,30.979919%);fill-opacity:1;" d="M 562.589844 168.316406 L 735.175781 253.300781 L 592.777344 593.246094 L 387.726562 694.203125 L 387.726562 215.085938 Z M 562.589844 168.316406 "/>
<path style=" stroke:none;fill-rule:nonzero;fill:rgb(21.569824%,27.839661%,30.979919%);fill-opacity:1;" d="M 387.726562 702.761719 C 386.019531 702.761719 384.308594 702.191406 383.171875 701.621094 C 380.894531 699.910156 379.183594 697.058594 379.183594 694.203125 L 379.183594 215.085938 C 379.183594 211.09375 382.03125 207.671875 385.449219 207.101562 L 560.3125 159.761719 C 562.589844 159.191406 564.300781 159.191406 566.578125 160.332031 L 739.160156 245.316406 C 743.148438 247.597656 744.855469 252.160156 743.148438 256.152344 L 600.753906 596.101562 C 600.183594 597.8125 598.472656 599.523438 596.765625 600.664062 L 391.714844 701.621094 C 390.574219 702.191406 388.867188 702.761719 387.726562 702.761719 Z M 396.273438 221.929688 L 396.273438 680.515625 L 585.941406 587.542969 L 723.78125 257.867188 L 562.019531 177.441406 Z M 396.273438 221.929688 "/>
<path style=" stroke:none;fill-rule:nonzero;fill:rgb(100%,100%,100%);fill-opacity:1;" d="M 399.121094 565.300781 L 592.207031 183.144531 L 526.707031 143.21875 L 390.574219 234.480469 L 255.015625 143.21875 L 188.941406 183.144531 L 382.03125 565.300781 L 382.03125 590.964844 L 390.574219 577.847656 L 399.121094 590.964844 Z M 399.121094 565.300781 "/>
<path style=" stroke:none;fill-rule:nonzero;fill:rgb(21.569824%,27.839661%,30.979919%);fill-opacity:1;" d="M 407.664062 618.914062 L 390.574219 593.246094 L 373.488281 618.914062 L 373.488281 567.582031 L 178.121094 179.722656 L 255.585938 132.953125 L 390.574219 223.640625 L 526.136719 132.953125 L 603.03125 179.722656 L 407.664062 567.011719 Z M 200.335938 185.996094 L 390.574219 562.449219 L 391.144531 560.734375 L 580.816406 185.425781 L 526.707031 152.34375 L 390.574219 244.746094 L 254.445312 153.484375 Z M 200.335938 185.996094 "/>
<path style=" stroke:none;fill-rule:nonzero;fill:rgb(100%,100%,100%);fill-opacity:1;" d="M 353.554688 287.523438 L 229.382812 150.0625 L 280.078125 108.425781 L 384.878906 148.921875 Z M 353.554688 287.523438 "/>
<path style=" stroke:none;fill-rule:nonzero;fill:rgb(21.569824%,27.839661%,30.979919%);fill-opacity:1;" d="M 353.554688 296.652344 C 351.273438 296.652344 348.425781 295.511719 346.71875 293.800781 L 223.117188 155.765625 C 221.410156 154.054688 220.839844 151.773438 220.839844 148.921875 C 220.839844 146.640625 221.980469 144.359375 224.257812 142.648438 L 274.949219 101.011719 C 277.226562 98.730469 280.644531 98.160156 284.0625 99.300781 L 388.867188 139.796875 C 392.855469 141.507812 395.132812 145.5 394.5625 150.0625 L 362.097656 289.804688 C 361.527344 293.230469 358.679688 295.511719 355.832031 296.652344 Z M 242.484375 151.203125 L 348.425781 269.273438 L 374.058594 154.625 L 281.214844 118.691406 Z M 242.484375 151.203125 "/>
<path style=" stroke:none;fill-rule:nonzero;fill:rgb(100%,100%,100%);fill-opacity:1;" d="M 428.167969 287.523438 L 551.769531 150.0625 L 501.074219 108.425781 L 396.273438 148.921875 Z M 428.167969 287.523438 "/>
<path style=" stroke:none;fill-rule:nonzero;fill:rgb(21.569824%,27.839661%,30.979919%);fill-opacity:1;" d="M 428.167969 296.652344 L 425.890625 296.652344 C 422.472656 296.082031 420.195312 293.230469 419.625 289.804688 L 388.296875 151.203125 C 387.160156 146.640625 389.4375 142.648438 393.992188 140.9375 L 498.796875 100.441406 C 501.644531 99.300781 505.0625 99.871094 507.910156 102.152344 L 558.601562 143.789062 C 560.3125 145.5 561.449219 147.78125 562.019531 150.0625 C 562.019531 152.34375 561.449219 154.625 559.742188 156.910156 L 434.433594 293.800781 C 432.726562 295.511719 430.445312 296.652344 428.167969 296.652344 Z M 407.09375 154.625 L 433.292969 269.273438 L 538.667969 151.203125 L 499.367188 118.691406 Z M 407.09375 154.625 "/>
<path style=" stroke:none;fill-rule:nonzero;fill:rgb(21.569824%,27.839661%,30.979919%);fill-opacity:1;" d="M 373.488281 197.976562 L 343.300781 455.214844 L 387.726562 564.730469 L 387.726562 159.761719 Z M 373.488281 197.976562 "/>
<path style=" stroke:none;fill-rule:nonzero;fill:rgb(21.569824%,27.839661%,30.979919%);fill-opacity:1;" d="M 387.726562 573.285156 C 384.308594 573.285156 380.894531 571.003906 379.753906 568.152344 L 335.324219 458.636719 C 334.757812 457.496094 334.757812 455.785156 334.757812 454.644531 L 364.945312 197.40625 C 364.945312 196.835938 364.945312 196.265625 365.515625 195.695312 L 379.753906 157.480469 C 381.460938 153.484375 385.449219 151.203125 389.4375 151.773438 C 393.421875 152.34375 396.273438 156.339844 396.273438 160.332031 L 396.273438 565.300781 C 396.273438 569.292969 393.421875 572.714844 389.4375 573.855469 C 388.867188 573.285156 388.296875 573.285156 387.726562 573.285156 Z M 351.84375 454.074219 L 379.183594 520.808594 L 379.183594 223.640625 Z M 351.84375 454.074219 "/>
<path style=" stroke:none;fill-rule:nonzero;fill:rgb(21.569824%,27.839661%,30.979919%);fill-opacity:1;" d="M 407.09375 199.117188 L 437.851562 455.214844 L 393.421875 564.730469 L 393.421875 176.300781 Z M 407.09375 199.117188 "/>
<path style=" stroke:none;fill-rule:nonzero;fill:rgb(21.569824%,27.839661%,30.979919%);fill-opacity:1;" d="M 393.421875 573.285156 L 391.714844 573.285156 C 387.726562 572.714844 384.878906 568.722656 384.878906 564.730469 L 384.878906 176.300781 C 384.878906 172.308594 387.726562 168.886719 391.144531 168.316406 C 395.132812 167.175781 398.550781 168.886719 400.828125 172.308594 L 414.5 195.125 C 415.066406 196.265625 415.636719 197.40625 415.636719 198.546875 L 446.394531 454.644531 C 446.394531 456.355469 446.394531 457.496094 445.824219 458.636719 L 401.398438 568.152344 C 400.257812 571.003906 396.839844 573.285156 393.421875 573.285156 Z M 401.96875 227.636719 L 401.96875 520.808594 L 429.308594 454.074219 Z M 401.96875 227.636719 "/>
<path style=" stroke:none;fill-rule:nonzero;fill:rgb(100%,67.059326%,0%);fill-opacity:1;" d="M 367.792969 373.082031 L 413.359375 373.082031 L 413.359375 395.898438 L 367.792969 395.898438 Z M 367.792969 373.082031 "/>
<path style=" stroke:none;fill-rule:nonzero;fill:rgb(100%,67.059326%,0%);fill-opacity:1;" d="M 540.945312 359.964844 L 577.398438 290.375 L 597.90625 328.59375 L 612.144531 313.191406 L 652.585938 353.6875 Z M 540.945312 359.964844 "/>
<path style=" stroke:none;fill-rule:nonzero;fill:rgb(21.569824%,27.839661%,30.979919%);fill-opacity:1;" d="M 438.992188 94.167969 C 438.992188 89.605469 442.40625 86.179688 446.964844 86.179688 C 451.519531 86.179688 454.9375 89.605469 454.9375 94.167969 C 454.9375 98.160156 451.519531 102.152344 446.964844 102.152344 C 442.40625 102.722656 438.421875 98.730469 438.992188 94.167969 Z M 438.992188 94.167969 "/>
<path style=" stroke:none;fill-rule:nonzero;fill:rgb(21.569824%,27.839661%,30.979919%);fill-opacity:1;" d="M 446.394531 105.574219 C 443.546875 105.574219 440.699219 104.433594 438.992188 102.152344 C 436.710938 99.871094 435.574219 97.019531 435.574219 94.167969 C 435.574219 91.316406 436.710938 88.460938 438.421875 86.75 C 440.699219 84.46875 442.976562 83.328125 445.824219 83.328125 C 452.089844 83.328125 456.648438 88.460938 456.648438 94.167969 C 456.648438 97.019531 455.507812 99.871094 453.800781 101.582031 C 452.089844 103.863281 449.242188 105.574219 446.394531 105.574219 Z M 446.394531 89.035156 C 445.253906 89.035156 443.546875 89.605469 442.976562 90.746094 C 441.839844 91.886719 441.269531 93.027344 441.269531 94.167969 C 441.269531 95.878906 441.839844 97.019531 442.976562 98.160156 C 444.6875 99.871094 448.105469 99.871094 450.382812 98.160156 C 451.519531 97.019531 452.089844 95.878906 452.089844 94.738281 C 452.089844 91.316406 449.242188 89.035156 446.394531 89.035156 Z M 446.394531 89.035156 "/>
<path style=" stroke:none;fill-rule:nonzero;fill:rgb(21.569824%,27.839661%,30.979919%);fill-opacity:1;" d="M 382.601562 94.167969 C 382.601562 89.605469 386.019531 86.179688 390.574219 86.179688 C 395.132812 86.179688 398.550781 89.605469 398.550781 94.167969 C 398.550781 98.160156 394.5625 102.152344 390.574219 102.152344 C 386.019531 102.152344 382.601562 98.730469 382.601562 94.167969 Z M 382.601562 94.167969 "/>
<path style=" stroke:none;fill-rule:nonzero;fill:rgb(21.569824%,27.839661%,30.979919%);fill-opacity:1;" d="M 390.574219 105.574219 C 384.878906 105.003906 379.753906 100.441406 379.753906 94.738281 C 379.753906 88.460938 384.878906 83.898438 390.574219 83.898438 C 396.839844 83.898438 401.398438 89.035156 401.398438 94.738281 C 401.398438 100.441406 396.273438 105.574219 390.574219 105.574219 Z M 390.574219 89.035156 C 387.726562 89.035156 385.449219 91.316406 385.449219 94.167969 C 385.449219 97.019531 387.726562 99.300781 390.574219 99.300781 C 393.421875 99.300781 395.703125 96.449219 395.703125 94.167969 C 395.703125 91.316406 393.421875 89.035156 390.574219 89.035156 Z M 390.574219 89.035156 "/>
<path style=" stroke:none;fill-rule:nonzero;fill:rgb(21.569824%,27.839661%,30.979919%);fill-opacity:1;" d="M 326.210938 94.167969 C 326.210938 89.605469 329.628906 86.179688 334.1875 86.179688 C 338.742188 86.179688 342.160156 89.605469 342.160156 94.167969 C 342.160156 98.730469 338.742188 102.152344 334.1875 102.152344 C 330.199219 102.152344 326.210938 98.730469 326.210938 94.167969 Z M 326.210938 94.167969 "/>
<path style=" stroke:none;fill-rule:nonzero;fill:rgb(21.569824%,27.839661%,30.979919%);fill-opacity:1;" d="M 334.1875 105.574219 C 327.921875 105.003906 323.363281 99.871094 323.363281 94.738281 C 323.363281 91.886719 324.503906 89.035156 326.210938 87.320312 C 330.199219 82.757812 337.605469 83.328125 341.589844 87.320312 C 343.871094 89.605469 344.4375 91.886719 344.4375 95.308594 C 345.007812 100.441406 340.453125 105.574219 334.1875 105.574219 Z M 334.1875 89.035156 C 333.046875 89.035156 331.339844 89.605469 330.769531 90.746094 C 329.628906 91.886719 329.0625 93.027344 329.628906 94.167969 C 329.628906 97.019531 331.910156 99.300781 334.757812 99.300781 C 337.605469 99.300781 339.882812 97.019531 339.882812 94.167969 C 339.882812 92.457031 339.3125 91.316406 338.742188 90.175781 C 337.035156 89.605469 335.894531 89.035156 334.1875 89.035156 Z M 334.1875 89.035156 "/>
</g>
</svg>
