<svg height="512" viewBox="0 0 512 512" width="512" xmlns="http://www.w3.org/2000/svg"><g id="Filled_outline" data-name="Filled outline"><path d="m296 256a136 136 0 1 1 -254.43-66.9 226.39 226.39 0 0 0 26.96-81l.66-4.83a91.65 91.65 0 0 1 181.62 0l.66 4.83a225.577 225.577 0 0 0 9.2 39.86 250.061 250.061 0 0 0 18.59 42.62 135.372 135.372 0 0 1 16.74 65.42z" fill="#66934c"/><path d="m296 256a135.744 135.744 0 0 1 -233.96 93.96c95.97-28.36 161.76-91.87 198.63-202a250.061 250.061 0 0 0 18.59 42.62 135.372 135.372 0 0 1 16.74 65.42z" fill="#638f43"/><path d="m488 168a111.946 111.946 0 0 1 -112-112 111.915 111.915 0 0 1 112 112z" fill="#79ad54"/><path d="m488 168a111.974 111.974 0 0 1 -100.05-61.62 267.6 267.6 0 0 0 91.21 17.94 111.629 111.629 0 0 1 8.84 43.68z" fill="#72a64e"/><path d="m360 126.667h-16v-6.294c-.453-5.4-2.223-46.414 42.159-93.839l11.682 10.932c-21.583 23.063-30.732 44.06-34.606 57.613-4.18 14.62-3.291 23.964-3.282 24.057a7.115 7.115 0 0 1 .047.864z" fill="#79ad54"/><path d="m443.468 204.1-.659-4.834a91.649 91.649 0 0 0 -90.809-79.266 91.649 91.649 0 0 0 -90.809 79.266l-.659 4.835a226.253 226.253 0 0 1 -26.961 81 135.349 135.349 0 0 0 -17.571 66.899c0 75.043 62.026 136.574 137.067 136a136.034 136.034 0 0 0 118.188-201.42c-14.104-25.652-23.832-53.475-27.787-82.48z" fill="#9bbc50"/><path d="m352.023 456a104.031 104.031 0 0 1 -90.606-155.134 257.126 257.126 0 0 0 30.821-92.441l.659-4.837a59.65 59.65 0 0 1 118.206 0l.659 4.834c4.376 32.095 14.958 63.578 31.453 93.578a104.019 104.019 0 0 1 -90.394 154z" fill="#fedb6d"/><path d="m440 368a72 72 0 1 1 -14.02-42.69 72.006 72.006 0 0 1 14.02 42.69z" fill="#f7cf59"/><path d="m424 352a72 72 0 1 1 -14.02-42.69 72.006 72.006 0 0 1 14.02 42.69z" fill="#92563a"/><path d="m424 352a71.992 71.992 0 0 1 -122.13 51.67c43.9-21.1 79.88-52.04 108.11-94.36a71.687 71.687 0 0 1 14.02 42.69z" fill="#875036"/><path d="m161.009 384a128.034 128.034 0 0 1 -112.477-190.959 233.369 233.369 0 0 0 27.924-83.857l.661-4.835a83.65 83.65 0 0 1 165.767 0l.659 4.826a233.583 233.583 0 0 0 7.106 33.413l15.367-4.456a217.732 217.732 0 0 1 -6.62-31.12l-.659-4.828a99.651 99.651 0 0 0 -197.473 0l-.661 4.832a217.419 217.419 0 0 1 -26 78.14 144.312 144.312 0 0 0 125.42 214.844h1.109a144.662 144.662 0 0 0 31.743-3.77l-3.64-15.58a128.649 128.649 0 0 1 -28.226 3.35z"/><path d="m96.881 162.513-15.191-5.026c-1.726 5.219-3.647 10.432-5.709 15.5l14.819 6.03c2.2-5.394 4.242-10.947 6.081-16.504z"/><path d="m83.394 195.528-14.361-7.056c-2.063 4.2-4.276 8.388-6.577 12.452a111.956 111.956 0 0 0 -14.456 55.076 110.651 110.651 0 0 0 5.483 34.491l15.205-4.98a94.7 94.7 0 0 1 -4.688-29.511 95.919 95.919 0 0 1 12.378-47.19c2.455-4.336 4.815-8.804 7.016-13.282z"/><path d="m451.4 203.019-.659-4.834a99.589 99.589 0 0 0 -10.044-31.912 119.317 119.317 0 0 0 47.303 9.727 8 8 0 0 0 8-8 120.171 120.171 0 0 0 -107.8-119.384c2.9-3.645 6.1-7.369 9.637-11.15l-11.678-10.932c-34.916 37.31-41.267 70.651-42.168 85.805a99.61 99.61 0 0 0 -90.727 85.847l-.659 4.835a217.3 217.3 0 0 1 -25.995 78.135 144.3 144.3 0 0 0 125.397 214.844h1.121a144.036 144.036 0 0 0 125.138-213.275c-14.12-25.679-23.161-52.496-26.866-79.706zm28.274-43.35a104.17 104.17 0 0 1 -95.338-95.338 104.17 104.17 0 0 1 95.333 95.338zm-109.737-82.145a119.205 119.205 0 0 0 15.169 40.161 99.556 99.556 0 0 0 -25.065-5.343 86.643 86.643 0 0 1 3.194-17.263 114.273 114.273 0 0 1 6.702-17.555zm72.9 364.656a128.014 128.014 0 0 1 -202.304-153.14 233.227 233.227 0 0 0 27.925-83.858l.66-4.835a83.649 83.649 0 0 1 165.764 0l.66 4.834c3.976 29.163 13.633 57.846 28.7 85.253a128.064 128.064 0 0 1 -21.404 151.746z"/><path d="m352 432a80 80 0 1 1 80-80 80.091 80.091 0 0 1 -80 80zm0-144a64 64 0 1 0 64 64 64.072 64.072 0 0 0 -64-64z"/></g></svg>