<svg id="Capa_1" enable-background="new 0 0 512 512" height="512" viewBox="0 0 512 512" width="512" xmlns="http://www.w3.org/2000/svg"><g><path d="m316 346h60v30h-60z" fill="#282c33"/><path d="m271 106v30h-150v90l-30 30v-150z" fill="#41474d"/><path d="m166 106h105v30h-105z" fill="#282c33"/><path d="m196.002 219.788h29.997v72.423h-29.997z" fill="#282c33" transform="matrix(.707 -.707 .707 .707 -119.219 224.18)"/><path d="m331 256v180h-331v-120l30-15-30-15v-60h121v90h90v-60z" fill="#ff641a"/><path d="m331 256v180h-165v-120h45v-60z" fill="#f03800"/><path d="m466 166-15 30-15-30h-60v135h106l30-15v-120z" fill="#fabe2c"/><path d="m436 166h30v60h-30z" fill="#fed843"/><path d="m106 466c-24.814 0-45-20.186-45-45s20.186-45 45-45 45 20.186 45 45-20.186 45-45 45z" fill="#5c6366"/><path d="m226 466c-24.814 0-45-20.186-45-45s20.186-45 45-45 45 20.186 45 45-20.186 45-45 45z" fill="#41474d"/><circle cx="106" cy="421" fill="#e6f2ff" r="15"/><circle cx="226" cy="421" fill="#cdf" r="15"/><path d="m466 286-15 30-15-30h-60v135h106l30-15v-120z" fill="#ff9100"/><path d="m436 286h30v60h-30z" fill="#fabe2c"/><path d="m391 406v-360h-30v390h151v-30z" fill="#41474d"/><path d="m0 286h61v30h-61z" fill="#fed843"/></g></svg>