<svg id="Capa_1" enable-background="new 0 0 512 512" height="512" viewBox="0 0 512 512" width="512" xmlns="http://www.w3.org/2000/svg"><g><g><g><path d="m424.697 479.331h-337.393v-303.135c0-93.168 75.528-168.696 168.696-168.696 93.168 0 168.696 75.528 168.696 168.696v303.135z" fill="#f2f9ff"/><path d="m256.001 7.5c-11.178 0-22.097 1.098-32.667 3.172 77.533 15.215 136.03 83.533 136.03 165.524v303.135h65.333v-303.135c-.001-93.168-75.528-168.696-168.696-168.696z" fill="#e2f4ff"/><path d="m434.988 504.5h-357.975c-15.807 0-28.621-12.814-28.621-28.621 0-15.807 12.814-28.621 28.621-28.621h357.975c15.807 0 28.621 12.814 28.621 28.621 0 15.807-12.814 28.621-28.621 28.621z" fill="#e4936b"/><path d="m434.988 447.257h-65.333c15.807 0 28.621 12.814 28.621 28.621 0 15.807-12.814 28.621-28.621 28.621h65.333c15.807 0 28.621-12.814 28.621-28.621 0-15.806-12.814-28.621-28.621-28.621z" fill="#e27d47"/></g><path d="m374.283 447.257c-31.305-27.361-70.992-43.756-114.21-43.756s-82.905 16.396-114.21 43.756z" fill="#c6865c"/><path d="m374.283 447.257c-31.305-27.361-70.992-43.756-114.21-43.756s-82.905 16.396-114.21 43.756z" fill="#c6865c"/><path d="m374.651 168.589c.472-1.507-.909-2.968-2.428-2.535-5.923 1.689-20.645 3.584-55.286-.629-67.057-8.157-56.94 61.855-56.94 61.855s79.741 52.846 114.654-58.691z" fill="#b5e245"/><path d="m150.958 237.245c-.286-1.553 1.262-2.836 2.717-2.222 5.675 2.394 20.117 8.095 54.955 6.074 55.619-3.227 51.35 68.494 51.35 68.494s-87.88 42.6-109.022-72.346z" fill="#c6e873"/></g><path d="m434.988 439.757h-2.791v-39.003c0-4.142-3.357-7.5-7.5-7.5s-7.5 3.358-7.5 7.5v39.003h-40.144c-31.864-27.064-69.692-42.051-109.959-43.611v-156.683c18.261 8.056 38.769 10.769 57.803 4.013 25.51-9.056 44.658-33.497 56.912-72.646h.001c1.045-3.342.175-6.977-2.271-9.487-2.433-2.496-6.023-3.456-9.371-2.5-4.068 1.16-17.31 3.397-52.324-.862-21.683-2.636-38.523 1.999-50.046 13.783-16.346 16.718-16.329 42.58-15.626 52.535-.045.334-.077.672-.077 1.019v26.88c-1.283-1.653-2.66-3.248-4.162-4.752-10.109-10.124-23.483-14.781-39.735-13.836-33.912 1.965-47.229-3.651-51.605-5.497-3.207-1.353-6.888-.836-9.606 1.348-2.732 2.195-4.036 5.699-3.401 9.141 4.246 23.088 11.497 41.87 21.55 55.824 2.422 3.361 7.108 4.122 10.469 1.702 3.361-2.421 4.123-7.109 1.701-10.469-7.4-10.273-13.108-23.845-17.018-40.436 9.833 2.681 24.756 4.756 48.78 3.362 11.948-.693 21.174 2.392 28.22 9.428 10.373 10.361 13.752 27.068 14.809 38.55v8.153c-9.19 3.343-30.647 9.232-50.831.692-3.812-1.614-8.216.169-9.829 3.985-1.614 3.815.17 8.216 3.985 9.83 9.786 4.141 19.667 5.604 28.749 5.604 11.028 0 20.868-2.159 27.926-4.301v75.655c-39.91 1.759-77.389 16.73-109 43.579h-48.29v-263.564c-.003-88.884 72.31-161.196 161.193-161.196s161.196 72.312 161.196 161.196v189.495c0 4.142 3.357 7.5 7.5 7.5s7.5-3.358 7.5-7.5v-189.495c.001-97.155-79.04-176.196-176.196-176.196s-176.196 79.041-176.196 176.196v263.562h-2.791c-19.918 0-36.122 16.204-36.122 36.122 0 19.917 16.204 36.121 36.122 36.121h357.975c19.917 0 36.121-16.204 36.121-36.121 0-19.919-16.204-36.123-36.121-36.123zm-67.495-273.407c-.001.003-.002.009-.004.013.002-.005.003-.009.004-.013zm-88.93 15.858c8.084-8.237 20.688-11.382 37.469-9.337 23.908 2.908 39.028 3.004 48.56 2.081-10.644 29.296-25.625 47.563-44.604 54.35-22.389 8.009-44.951-2.255-52.876-6.549-.498-8.097-.412-28.46 11.451-40.545zm-18.49 228.793c33.125 0 64.653 9.885 92.294 28.756h-184.588c27.641-18.871 59.169-28.756 92.294-28.756zm174.915 85.999h-357.975c-11.646 0-21.122-9.475-21.122-21.121s9.476-21.122 21.122-21.122h357.975c11.646 0 21.121 9.475 21.121 21.122 0 11.646-9.475 21.121-21.121 21.121z"/></g></svg>