<svg height="512" viewBox="0 0 64 64" width="512" xmlns="http://www.w3.org/2000/svg"><g id="Fill_Outline" data-name="Fill Outline"><path d="m42 34h10v27h-10z" fill="#937963"/><circle cx="32" cy="9" fill="#039791" r="6"/><path d="m38 39 1-16v10.5a2.5 2.5 0 0 0 2.5 2.5 2.5 2.5 0 0 0 2.5-2.5v-13.5a4 4 0 0 0 -4-4h-16a4 4 0 0 0 -4 4v13.5a2.5 2.5 0 0 0 2.5 2.5 2.5 2.5 0 0 0 2.5-2.5v-10.5l1 16v19a3 3 0 0 0 3 3 3 3 0 0 0 3-3 3 3 0 0 0 3 3 3 3 0 0 0 3-3z" fill="#039791"/><path d="m42 34h19v27h-19z" fill="#d6c2ad"/><path d="m47 56v-22h5v27z" fill="#c7b29e"/><path d="m3 34h22v27h-22z" fill="#f4bb3a"/><path d="m3 34h10v27h-10z" fill="#d6562b"/><path d="m8 56v-22h5v27z" fill="#f09b36"/><path d="m3 61 5-5 5 5z" fill="#ed7c31"/><path d="m42 61 5-5 5 5z" fill="#b29c88"/><path d="m20 43h22v18h-22z" fill="#97d7d9"/><path d="m20 43h10v18h-10z" fill="#6ac9cd"/><path d="m20 61 5-5 5 5z" fill="#4ec3c7"/><path d="m25 56v-13h5v18z" fill="#81d0d3"/></g><path d="m61 33h-2v-3a4 4 0 0 0 -8 0 4 4 0 0 0 -4-4 3.959 3.959 0 0 0 -2 .556v-6.556a5.006 5.006 0 0 0 -5-5h-4.413a7 7 0 1 0 -7.174 0h-4.413a5.006 5.006 0 0 0 -5 5v6a4 4 0 0 0 -4 4v3h-3v-3a4 4 0 0 0 -8 0v3h-1a1 1 0 0 0 -1 1v27c0 .013.007.024.007.037a1.015 1.015 0 0 0 .069.346c0 .008.01.014.014.023a.994.994 0 0 0 .179.266.842.842 0 0 0 .077.069.948.948 0 0 0 .208.14.825.825 0 0 0 .095.045.975.975 0 0 0 .351.074h58a1 1 0 0 0 1-1v-27a1 1 0 0 0 -1-1zm-34-24a5 5 0 1 1 5 5 5.006 5.006 0 0 1 -5-5zm28 19a2 2 0 0 1 2 2v3h-4v-3a2 2 0 0 1 2-2zm-4 30.586-3-3v-20.586h3zm-42-23.586h3v23.586l-3-3zm5 0h10v.142a4 4 0 0 0 -3 3.858v3h-1a1 1 0 0 0 -1 1v17h-5zm13 7h-4v-3a2 2 0 0 1 4 0zm-6 2h3v11.586l-3 3zm5 0h3v14.586l-3-3zm5 0h10v16h-10zm10-2h-1v-3a3.964 3.964 0 0 0 -.846-2.431l.028-.449a3.54 3.54 0 0 0 1.818.815zm-3-3v3h-4v-3a2 2 0 0 1 4 0zm5 4v-8h3v20.586l-3 3zm4-15a2 2 0 0 1 2 2v3h-4v-3a2 2 0 0 1 2-2zm-26-8a3 3 0 0 1 3-3h16a3 3 0 0 1 3 3v13h-1a1 1 0 0 0 -1 1v.908a1.5 1.5 0 0 1 -1-1.408v-10.5a1 1 0 0 0 -2-.062l-.767 12.277a3.959 3.959 0 0 0 -1.233-.215 4 4 0 0 0 -4 4v3h-3v-3a3.985 3.985 0 0 0 -2.033-3.461l-.967-12.616a.971.971 0 0 0 -1.039-.923 1 1 0 0 0 -.961 1v10h-1v-3a3.987 3.987 0 0 0 -2-3.444zm-4 10a2 2 0 0 1 4 0v3h-4zm-11 0a2 2 0 0 1 4 0v3h-4zm1 5v20.586l-3 3v-23.586zm-1.586 25 2.586-2.586 2.586 2.586zm17 0 1.586-1.586v1.586zm3.586 0v-1.586l1.586 1.586zm18.414 0 2.586-2.586 2.586 2.586zm15.586 0h-7v-25h7z"/></svg>