<?xml version="1.0" encoding="UTF-8"?>
<svg xmlns="http://www.w3.org/2000/svg" xmlns:xlink="http://www.w3.org/1999/xlink" width="80pt" height="85pt" viewBox="0 0 80 85" version="1.1">
<defs>
<filter id="alpha" filterUnits="objectBoundingBox" x="0%" y="0%" width="100%" height="100%">
  <feColorMatrix type="matrix" in="SourceGraphic" values="0 0 0 0 1 0 0 0 0 1 0 0 0 0 1 0 0 0 1 0"/>
</filter>
<mask id="mask0">
  <g filter="url(#alpha)">
<rect x="0" y="0" width="80" height="85" style="fill:rgb(0%,0%,0%);fill-opacity:0.2;stroke:none;"/>
  </g>
</mask>
<clipPath id="clip1">
  <rect x="0" y="0" width="80" height="85"/>
</clipPath>
<g id="surface5" clip-path="url(#clip1)">
<path style=" stroke:none;fill-rule:nonzero;fill:rgb(0%,0%,0%);fill-opacity:1;" d="M 60.023438 30.382812 L 59.636719 38.988281 L 57.609375 47.945312 L 60.605469 39.164062 Z M 60.023438 30.382812 "/>
</g>
</defs>
<g id="surface1">
<path style=" stroke:none;fill-rule:nonzero;fill:rgb(24.705882%,23.921569%,33.72549%);fill-opacity:1;" d="M 48.550781 47.242188 L 1.640625 47.242188 C 0.734375 47.238281 0 45.902344 0 44.257812 L 0 2.984375 C 0 1.335938 0.734375 0 1.640625 0 L 48.550781 0 C 49.457031 0 50.191406 1.335938 50.191406 2.984375 L 50.191406 44.257812 C 50.191406 45.902344 49.457031 47.238281 48.550781 47.242188 Z M 1.640625 0.351562 C 0.84375 0.351562 0.195312 1.53125 0.191406 2.984375 L 0.191406 44.257812 C 0.195312 45.710938 0.84375 46.890625 1.640625 46.890625 L 48.550781 46.890625 C 49.351562 46.890625 50 45.710938 50 44.257812 L 50 2.984375 C 50 1.53125 49.351562 0.351562 48.550781 0.351562 Z M 1.640625 0.351562 "/>
<path style=" stroke:none;fill-rule:nonzero;fill:rgb(80%,80%,80%);fill-opacity:1;" d="M 9.878906 8.691406 C 9.878906 9.566406 9.488281 10.273438 9.007812 10.273438 C 8.53125 10.273438 8.140625 9.566406 8.140625 8.691406 C 8.140625 7.820312 8.53125 7.113281 9.007812 7.113281 C 9.488281 7.113281 9.878906 7.820312 9.878906 8.691406 Z M 9.878906 8.691406 "/>
<path style=" stroke:none;fill-rule:nonzero;fill:rgb(80%,80%,80%);fill-opacity:1;" d="M 9.878906 14.664062 C 9.878906 15.539062 9.488281 16.246094 9.007812 16.246094 C 8.53125 16.246094 8.140625 15.539062 8.140625 14.664062 C 8.140625 13.792969 8.53125 13.082031 9.007812 13.082031 C 9.488281 13.082031 9.878906 13.792969 9.878906 14.664062 Z M 9.878906 14.664062 "/>
<path style=" stroke:none;fill-rule:nonzero;fill:rgb(80%,80%,80%);fill-opacity:1;" d="M 9.878906 20.636719 C 9.878906 21.507812 9.488281 22.214844 9.007812 22.214844 C 8.53125 22.214844 8.140625 21.507812 8.140625 20.636719 C 8.140625 19.761719 8.53125 19.054688 9.007812 19.054688 C 9.488281 19.054688 9.878906 19.761719 9.878906 20.636719 Z M 9.878906 20.636719 "/>
<path style=" stroke:none;fill-rule:nonzero;fill:rgb(80%,80%,80%);fill-opacity:1;" d="M 9.878906 26.605469 C 9.878906 27.480469 9.488281 28.1875 9.007812 28.1875 C 8.53125 28.1875 8.140625 27.480469 8.140625 26.605469 C 8.140625 25.734375 8.53125 25.027344 9.007812 25.027344 C 9.488281 25.027344 9.878906 25.734375 9.878906 26.605469 Z M 9.878906 26.605469 "/>
<path style=" stroke:none;fill-rule:nonzero;fill:rgb(80%,80%,80%);fill-opacity:1;" d="M 24.515625 38.546875 C 24.515625 39.421875 24.128906 40.128906 23.648438 40.128906 C 23.167969 40.128906 22.777344 39.421875 22.777344 38.546875 C 22.777344 37.675781 23.167969 36.96875 23.648438 36.96875 C 24.128906 36.96875 24.515625 37.675781 24.515625 38.546875 Z M 24.515625 38.546875 "/>
<path style=" stroke:none;fill-rule:nonzero;fill:rgb(80%,80%,80%);fill-opacity:1;" d="M 18.238281 38.546875 C 18.238281 39.421875 17.847656 40.128906 17.367188 40.128906 C 16.886719 40.128906 16.496094 39.421875 16.496094 38.546875 C 16.496094 37.675781 16.886719 36.96875 17.367188 36.96875 C 17.847656 36.96875 18.238281 37.675781 18.238281 38.546875 Z M 18.238281 38.546875 "/>
<path style=" stroke:none;fill-rule:nonzero;fill:rgb(80%,80%,80%);fill-opacity:1;" d="M 37.464844 38.546875 C 37.464844 39.421875 37.074219 40.128906 36.59375 40.128906 C 36.113281 40.128906 35.726562 39.421875 35.726562 38.546875 C 35.726562 37.675781 36.113281 36.96875 36.59375 36.96875 C 37.074219 36.96875 37.464844 37.675781 37.464844 38.546875 Z M 37.464844 38.546875 "/>
<path style=" stroke:none;fill-rule:nonzero;fill:rgb(80%,80%,80%);fill-opacity:1;" d="M 30.894531 38.546875 C 30.894531 39.421875 30.503906 40.128906 30.023438 40.128906 C 29.542969 40.128906 29.15625 39.421875 29.15625 38.546875 C 29.15625 37.675781 29.542969 36.96875 30.023438 36.96875 C 30.503906 36.96875 30.894531 37.675781 30.894531 38.546875 Z M 30.894531 38.546875 "/>
<path style=" stroke:none;fill-rule:nonzero;fill:rgb(80%,80%,80%);fill-opacity:1;" d="M 41.957031 8.867188 L 13.359375 8.867188 C 13.304688 8.867188 13.261719 8.789062 13.261719 8.691406 C 13.261719 8.597656 13.304688 8.515625 13.359375 8.515625 L 41.957031 8.515625 C 42.011719 8.515625 42.054688 8.597656 42.054688 8.691406 C 42.054688 8.789062 42.011719 8.867188 41.957031 8.867188 Z M 41.957031 8.867188 "/>
<path style=" stroke:none;fill-rule:nonzero;fill:rgb(80%,80%,80%);fill-opacity:1;" d="M 41.957031 14.839844 L 13.359375 14.839844 C 13.304688 14.839844 13.261719 14.761719 13.261719 14.664062 C 13.261719 14.566406 13.304688 14.488281 13.359375 14.488281 L 41.957031 14.488281 C 42.011719 14.488281 42.054688 14.566406 42.054688 14.664062 C 42.054688 14.761719 42.011719 14.839844 41.957031 14.839844 Z M 41.957031 14.839844 "/>
<path style=" stroke:none;fill-rule:nonzero;fill:rgb(80%,80%,80%);fill-opacity:1;" d="M 41.957031 20.8125 L 13.359375 20.8125 C 13.304688 20.8125 13.261719 20.730469 13.261719 20.636719 C 13.261719 20.539062 13.304688 20.460938 13.359375 20.460938 L 41.957031 20.460938 C 42.011719 20.460938 42.054688 20.539062 42.054688 20.636719 C 42.054688 20.730469 42.011719 20.8125 41.957031 20.8125 Z M 41.957031 20.8125 "/>
<path style=" stroke:none;fill-rule:nonzero;fill:rgb(80%,80%,80%);fill-opacity:1;" d="M 41.957031 26.78125 L 13.359375 26.78125 C 13.304688 26.78125 13.261719 26.703125 13.261719 26.605469 C 13.261719 26.507812 13.304688 26.429688 13.359375 26.429688 L 41.957031 26.429688 C 42.011719 26.429688 42.054688 26.507812 42.054688 26.605469 C 42.054688 26.703125 42.011719 26.78125 41.957031 26.78125 Z M 41.957031 26.78125 "/>
<path style=" stroke:none;fill-rule:nonzero;fill:rgb(42.352941%,38.823529%,100%);fill-opacity:1;" d="M 18.769531 32.753906 L 15.964844 32.753906 C 15.699219 32.753906 15.484375 32.359375 15.484375 31.875 L 15.484375 27.132812 C 15.484375 26.648438 15.699219 26.253906 15.964844 26.253906 L 18.769531 26.253906 C 19.035156 26.253906 19.25 26.648438 19.25 27.132812 L 19.25 31.875 C 19.25 32.359375 19.035156 32.753906 18.769531 32.753906 Z M 18.769531 32.753906 "/>
<path style=" stroke:none;fill-rule:nonzero;fill:rgb(42.352941%,38.823529%,100%);fill-opacity:1;" d="M 25.046875 32.753906 L 22.246094 32.753906 C 21.980469 32.753906 21.761719 32.359375 21.761719 31.875 L 21.761719 21.164062 C 21.761719 20.675781 21.980469 20.285156 22.246094 20.285156 L 25.046875 20.285156 C 25.316406 20.285156 25.53125 20.675781 25.53125 21.164062 L 25.53125 31.875 C 25.53125 32.359375 25.316406 32.753906 25.046875 32.753906 Z M 25.046875 32.753906 "/>
<path style=" stroke:none;fill-rule:nonzero;fill:rgb(42.352941%,38.823529%,100%);fill-opacity:1;" d="M 31.425781 32.753906 L 28.625 32.753906 C 28.355469 32.753906 28.140625 32.359375 28.140625 31.875 L 28.140625 15.191406 C 28.140625 14.707031 28.355469 14.3125 28.625 14.3125 L 31.425781 14.3125 C 31.691406 14.3125 31.90625 14.707031 31.910156 15.191406 L 31.910156 31.875 C 31.90625 32.359375 31.691406 32.753906 31.425781 32.753906 Z M 31.425781 32.753906 "/>
<path style=" stroke:none;fill-rule:nonzero;fill:rgb(42.352941%,38.823529%,100%);fill-opacity:1;" d="M 37.996094 32.753906 L 35.191406 32.753906 C 34.925781 32.753906 34.710938 32.359375 34.710938 31.875 L 34.710938 9.394531 C 34.710938 8.910156 34.925781 8.519531 35.191406 8.515625 L 37.996094 8.515625 C 38.261719 8.519531 38.476562 8.910156 38.476562 9.394531 L 38.476562 31.875 C 38.476562 32.359375 38.261719 32.753906 37.996094 32.753906 Z M 37.996094 32.753906 "/>
<path style=" stroke:none;fill-rule:nonzero;fill:rgb(94.901961%,94.901961%,94.901961%);fill-opacity:1;" d="M 64.101562 84.007812 C 63.234375 82.671875 62.707031 80.5625 62.84375 78.511719 C 62.980469 76.460938 63.839844 74.574219 64.949219 74.136719 C 66.0625 73.703125 67.332031 74.90625 67.667969 76.882812 C 67.855469 73.074219 68.070312 69.109375 69.183594 65.867188 C 70.191406 62.933594 71.9375 60.832031 73.828125 60.457031 C 75.722656 60.082031 77.714844 61.5 78.894531 64.214844 C 80.074219 66.929688 80.363281 70.878906 79.535156 73.996094 C 78.925781 76.289062 77.804688 78 76.628906 79.390625 C 72.832031 83.84375 68.277344 85.65625 63.800781 84.492188 Z M 64.101562 84.007812 "/>
<path style=" stroke:none;fill-rule:nonzero;fill:rgb(100%,100%,100%);fill-opacity:1;" d="M 77.023438 61.578125 C 75.460938 63.890625 74.027344 66.476562 72.746094 69.296875 C 70.738281 73.699219 69.113281 78.632812 67.929688 83.929688 C 67.839844 84.316406 68.1875 84.484375 68.273438 84.101562 C 70.210938 75.496094 73.304688 67.910156 77.273438 62.039062 C 77.453125 61.773438 77.199219 61.316406 77.023438 61.578125 Z M 77.023438 61.578125 "/>
<path style=" stroke:none;fill-rule:nonzero;fill:rgb(24.705882%,23.921569%,33.72549%);fill-opacity:1;" d="M 54.9375 35.660156 C 54.828125 35.660156 54.71875 35.640625 54.609375 35.601562 C 54.589844 35.59375 54.570312 35.585938 54.550781 35.578125 L 30.890625 25.566406 C 30.632812 25.457031 30.460938 25.160156 30.492188 24.878906 C 30.519531 24.710938 30.59375 24.585938 30.691406 24.550781 C 30.804688 24.492188 30.925781 24.488281 31.039062 24.535156 L 54.847656 33.574219 C 55.386719 33.777344 55.757812 34.375 55.695312 34.933594 C 55.664062 35.226562 55.523438 35.457031 55.296875 35.574219 C 55.179688 35.632812 55.058594 35.664062 54.9375 35.660156 Z M 54.9375 35.660156 "/>
<path style=" stroke:none;fill-rule:nonzero;fill:rgb(100%,72.156863%,72.156863%);fill-opacity:1;" d="M 49.925781 34.277344 C 50.171875 34.539062 50.472656 34.59375 50.746094 34.417969 C 51.015625 34.242188 51.230469 33.855469 51.328125 33.367188 L 54.78125 33.496094 L 53.824219 30.738281 L 50.695312 31.035156 C 50.21875 30.78125 49.714844 31.210938 49.519531 32.035156 C 49.324219 32.863281 49.496094 33.824219 49.925781 34.277344 Z M 49.925781 34.277344 "/>
<path style=" stroke:none;fill-rule:nonzero;fill:rgb(24.705882%,23.921569%,33.72549%);fill-opacity:1;" d="M 51.425781 33.273438 L 51.40625 31.351562 C 51.40625 30.9375 51.574219 30.589844 51.800781 30.550781 L 58.003906 29.460938 L 63.171875 26.382812 C 63.597656 26.128906 64.0625 26.3125 64.390625 26.859375 C 64.722656 27.40625 64.863281 28.234375 64.765625 29.027344 C 64.664062 29.816406 64.335938 30.449219 63.910156 30.679688 L 58.1875 33.757812 L 51.871094 34.050781 C 51.675781 34.058594 51.5 33.828125 51.441406 33.484375 C 51.433594 33.417969 51.425781 33.34375 51.425781 33.273438 Z M 51.425781 33.273438 "/>
<path style=" stroke:none;fill-rule:nonzero;fill:rgb(100%,72.156863%,72.156863%);fill-opacity:1;" d="M 60.605469 82.855469 L 59.421875 82.855469 L 58.855469 74.550781 L 60.605469 74.550781 Z M 60.605469 82.855469 "/>
<path style=" stroke:none;fill-rule:nonzero;fill:rgb(18.431373%,18.039216%,25.490196%);fill-opacity:1;" d="M 60.90625 84.941406 L 57.085938 84.941406 L 57.085938 84.851562 C 57.085938 83.359375 57.753906 82.152344 58.574219 82.152344 L 60.90625 82.152344 Z M 60.90625 84.941406 "/>
<path style=" stroke:none;fill-rule:nonzero;fill:rgb(100%,72.156863%,72.156863%);fill-opacity:1;" d="M 64.082031 82.855469 L 62.898438 82.855469 L 62.335938 74.550781 L 64.082031 74.550781 Z M 64.082031 82.855469 "/>
<path style=" stroke:none;fill-rule:nonzero;fill:rgb(18.431373%,18.039216%,25.490196%);fill-opacity:1;" d="M 64.386719 84.941406 L 60.566406 84.941406 L 60.566406 84.851562 C 60.566406 83.359375 61.230469 82.152344 62.050781 82.152344 L 64.386719 82.152344 Z M 64.386719 84.941406 "/>
<path style=" stroke:none;fill-rule:nonzero;fill:rgb(18.431373%,18.039216%,25.490196%);fill-opacity:1;" d="M 64.878906 49.292969 L 64.59375 79.796875 C 64.59375 79.992188 64.546875 80.175781 64.46875 80.308594 C 64.386719 80.4375 64.28125 80.5 64.171875 80.484375 L 62.789062 80.253906 C 62.601562 80.222656 62.453125 79.949219 62.4375 79.609375 L 61.625 60.582031 C 61.621094 60.488281 61.578125 60.417969 61.527344 60.417969 C 61.476562 60.421875 61.433594 60.496094 61.433594 60.589844 L 61.027344 80.050781 C 61.019531 80.429688 60.847656 80.726562 60.640625 80.726562 L 59.15625 80.726562 C 58.949219 80.726562 58.78125 80.4375 58.769531 80.066406 L 57.726562 49.117188 L 63.910156 46.304688 Z M 64.878906 49.292969 "/>
<path style=" stroke:none;fill-rule:nonzero;fill:rgb(100%,72.156863%,72.156863%);fill-opacity:1;" d="M 62.765625 16.335938 C 62.765625 18.71875 61.703125 20.648438 60.394531 20.648438 C 59.082031 20.648438 58.019531 18.71875 58.019531 16.335938 C 58.019531 13.953125 59.082031 12.023438 60.394531 12.023438 C 61.703125 12.023438 62.765625 13.953125 62.765625 16.335938 Z M 62.765625 16.335938 "/>
<path style=" stroke:none;fill-rule:nonzero;fill:rgb(24.705882%,23.921569%,33.72549%);fill-opacity:1;" d="M 57.515625 50.199219 C 57.433594 50.054688 57.386719 49.851562 57.382812 49.644531 L 57.222656 28.84375 C 57.203125 26.671875 57.957031 24.726562 59.085938 24.023438 C 59.308594 22.191406 60.492188 21.960938 61.183594 21.988281 C 61.53125 22 61.855469 22.324219 62.050781 22.851562 L 62.542969 24.199219 L 63.632812 25.363281 C 64.667969 26.460938 65.195312 28.648438 64.9375 30.773438 L 64.769531 32.160156 C 64.175781 37.070312 64.234375 42.164062 64.933594 47.027344 L 65.269531 49.367188 C 65.304688 49.617188 65.273438 49.878906 65.183594 50.074219 C 65.09375 50.273438 64.957031 50.378906 64.816406 50.359375 L 64.425781 50.300781 C 64.214844 50.273438 64.046875 49.976562 64.023438 49.59375 L 63.960938 48.414062 C 63.957031 48.367188 63.9375 48.335938 63.910156 48.335938 C 63.886719 48.335938 63.867188 48.367188 63.863281 48.414062 L 63.800781 49.554688 C 63.777344 49.957031 63.59375 50.261719 63.375 50.265625 L 57.824219 50.421875 C 57.824219 50.421875 57.820312 50.421875 57.820312 50.421875 C 57.707031 50.421875 57.597656 50.34375 57.515625 50.199219 Z M 57.515625 50.199219 "/>
<path style=" stroke:none;fill-rule:nonzero;fill:rgb(18.431373%,18.039216%,25.490196%);fill-opacity:1;" d="M 60.578125 18.820312 C 60.589844 19.429688 60.820312 19.785156 61.105469 20.105469 C 61.394531 20.421875 61.726562 20.5625 62.054688 20.695312 C 62.144531 20.78125 62.25 20.777344 62.339844 20.683594 C 62.425781 20.589844 62.480469 20.417969 62.480469 20.234375 L 62.78125 18.15625 C 62.886719 17.496094 62.964844 16.816406 63.011719 16.132812 C 63.085938 14.8125 62.910156 13.394531 62.40625 12.441406 C 61.898438 11.488281 61.019531 11.148438 60.414062 11.882812 C 59.695312 10.210938 56.402344 13.90625 57.214844 15.066406 C 57.359375 15.273438 57.578125 15.011719 57.761719 14.988281 C 57.945312 14.960938 58.152344 15.019531 58.269531 15.28125 C 58.421875 15.617188 58.355469 16.121094 58.417969 16.542969 C 58.46875 16.84375 58.585938 17.089844 58.738281 17.234375 C 58.894531 17.378906 59.070312 17.402344 59.238281 17.304688 C 59.386719 17.171875 59.53125 17.003906 59.660156 16.808594 C 59.800781 16.640625 59.980469 16.511719 60.136719 16.621094 C 60.347656 16.761719 60.421875 17.226562 60.441406 17.628906 C 60.472656 18.03125 60.519531 18.429688 60.578125 18.820312 Z M 60.578125 18.820312 "/>
<path style=" stroke:none;fill-rule:nonzero;fill:rgb(24.705882%,23.921569%,33.72549%);fill-opacity:1;" d="M 78.15625 85 L 41.347656 85 C 41.292969 85 41.25 84.921875 41.25 84.824219 C 41.25 84.726562 41.292969 84.648438 41.347656 84.648438 L 78.15625 84.648438 C 78.210938 84.648438 78.253906 84.726562 78.253906 84.824219 C 78.253906 84.921875 78.210938 85 78.15625 85 Z M 78.15625 85 "/>
<use xlink:href="#surface5" mask="url(#mask0)"/>
<path style=" stroke:none;fill-rule:nonzero;fill:rgb(100%,72.156863%,72.156863%);fill-opacity:1;" d="M 57.132812 51.28125 C 57.359375 50.953125 57.492188 50.460938 57.496094 49.9375 C 57.503906 49.417969 57.382812 48.914062 57.164062 48.570312 L 58.457031 42.753906 L 56.699219 43.398438 L 55.742188 48.824219 C 55.441406 49.539062 55.484375 50.550781 55.839844 51.175781 C 56.195312 51.804688 56.75 51.847656 57.132812 51.28125 Z M 57.132812 51.28125 "/>
<path style=" stroke:none;fill-rule:nonzero;fill:rgb(24.705882%,23.921569%,33.72549%);fill-opacity:1;" d="M 57.039062 48.714844 L 56.042969 48.0625 C 55.832031 47.917969 55.714844 47.507812 55.773438 47.109375 L 57.414062 36.183594 L 57.664062 26.308594 C 57.6875 25.496094 57.945312 24.765625 58.34375 24.402344 C 58.742188 24.035156 59.21875 24.085938 59.589844 24.539062 C 59.960938 24.988281 60.171875 25.769531 60.136719 26.578125 L 59.691406 37.394531 L 57.597656 48.230469 C 57.53125 48.566406 57.351562 48.785156 57.15625 48.757812 C 57.117188 48.753906 57.078125 48.738281 57.039062 48.714844 Z M 57.039062 48.714844 "/>
<path style=" stroke:none;fill-rule:nonzero;fill:rgb(24.705882%,23.921569%,33.72549%);fill-opacity:1;" d="M 41.957031 32.753906 L 13.359375 32.753906 C 13.304688 32.753906 13.261719 32.675781 13.261719 32.578125 C 13.261719 32.480469 13.304688 32.402344 13.359375 32.402344 L 41.957031 32.402344 C 42.011719 32.402344 42.054688 32.480469 42.054688 32.578125 C 42.054688 32.675781 42.011719 32.753906 41.957031 32.753906 Z M 41.957031 32.753906 "/>
</g>
</svg>
