<svg id="Capa_1" enable-background="new 0 0 512.004 512.004" height="512" viewBox="0 0 512.004 512.004" width="512" xmlns="http://www.w3.org/2000/svg"><g><path d="m345.662 237.502h60v70h-60z" fill="#a8e5ff"/><path d="m428.51 262.502h29.992c8.284 0 15-6.716 15-15v-15l-44.992-45z" fill="#a8e5ff"/><path d="m278.502 232.502v15c0 8.284 6.716 15 15 15h135.01c8.284 0 15-6.716 15-15v-60z" fill="#dbf4ff"/><path d="m458.502 127.502h-29.992l-45.003 45 60.005 60h29.99v-90c0-8.284-6.716-15-15-15z" fill="#029965"/><path d="m443.512 142.502c0-8.284-6.716-15-15-15h-135.01c-8.284 0-15 6.716-15 15v90h165.01z" fill="#30b054"/><path d="m443.002 307.501 30.5 60h30v-45z" fill="#c27749"/><path d="m263.502 307.501-15 15.001v44.999h225v-60z" fill="#e18f4e"/><path d="m473.502 292.502-15 15 15 15h30v-30z" fill="#ffa754"/><path d="m248.502 292.502h225v30h-225z" fill="#ffcb63"/><path d="m158.502 262.502v75c24.853 0 45-20.147 45-45v-30z" fill="#7dd9ff"/><path d="m173.502 292.502v-30h-60v30c0 24.853 20.147 45 45 45 8.284 0 15-20.148 15-45z" fill="#a8e5ff"/><path d="m198.502 172.502h-30l5 120h30c8.284 0 15-6.716 15-15v-85c0-11.046-8.954-20-20-20z" fill="#30b054"/><path d="m118.502 172.502c-11.046 0-20 8.954-20 20v85c0 8.284 6.716 15 15 15h60c8.284 0 15-6.716 15-15v-85c0-11.046-8.954-20-20-20z" fill="#80bf63"/><path d="m376.002 37.5h45v30h-45z" fill="#30b054"/><path d="m361.002 7.5v30h-30v30h30v30h30v-90z" fill="#80bf63"/><path d="m158.502 52.502v46.355h34.695v-30c-8.25-9.98-20.725-16.355-34.695-16.355z" fill="#85453d"/><path d="m123.807 98.857v-30c8.25-9.98 20.725-16.355 34.695-16.355 6.09 0 11.32 10.88 13.67 26.5-.129-.061 0 19.855 0 19.855z" fill="#a45e43"/><path d="m193.197 68.857c-1.07 4.55-4.225 8.535-8.865 10.465-4.64 1.92-9.68 1.33-13.65-1.13l-12.18 64.31c24.85 0 45-20.15 45-45 0-10.88-3.875-20.855-10.305-28.645z" fill="#a45e43"/><path d="m172.172 79.002c-.51-.24-1.01-.51-1.49-.81-2.72 3.79-7.16 6.26-12.18 6.26-4.08 0-7.77-1.63-10.48-4.28-.62-.61-1.19-1.27-1.7-1.98-3.97 2.46-9.01 3.05-13.65 1.13-2.03-.84-3.77-2.08-5.19-3.59-1.81-1.93-3.075-4.315-3.675-6.875-6.43 7.79-10.305 17.765-10.305 28.645 0 24.85 20.15 45 45 45 8.28 0 15-20.15 15-45 0-6.6-.48-12.86-1.33-18.5z" fill="#c27749"/><path d="m503.502 285.002h-90.34v-15h45.34c12.406 0 22.5-10.093 22.5-22.5v-105c0-12.407-10.094-22.5-22.5-22.5h-165c-12.406 0-22.5 10.093-22.5 22.5v105c0 12.407 10.094 22.5 22.5 22.5h44.66v15h-89.66c-4.143 0-7.5 3.358-7.5 7.5v212c0 4.142 3.357 7.5 7.5 7.5s7.5-3.358 7.5-7.5v-129.5h240v129.5c0 4.142 3.357 7.5 7.5 7.5s7.5-3.358 7.5-7.5v-212c0-4.142-3.357-7.5-7.5-7.5zm-210-150h165c4.136 0 7.5 3.364 7.5 7.5v82.5h-180v-82.5c0-4.136 3.364-7.5 7.5-7.5zm-7.5 112.5v-7.5h180v7.5c0 4.136-3.364 7.5-7.5 7.5h-165c-4.136 0-7.5-3.364-7.5-7.5zm67.16 22.5h45v15h-45zm142.84 30v15h-240v-15zm-240 59.999v-30h240v30z"/><path d="m220.874 497.387-24.872-8.291v-159.902c7.874-8.046 13.181-18.604 14.603-30.348 8.935-2.981 15.397-11.42 15.397-21.344v-85c0-15.164-12.337-27.5-27.5-27.5h-80c-12.465 0-23.013 8.339-26.375 19.729-42.52-3.268-76.125-38.886-76.125-82.229 0-4.142-3.357-7.5-7.5-7.5s-7.5 3.358-7.5 7.5c0 51.239 39.729 93.372 90 97.214v77.786c0 9.925 6.462 18.363 15.397 21.344 1.422 11.743 6.729 22.302 14.603 30.348v159.902l-24.872 8.291c-3.93 1.31-6.053 5.557-4.743 9.487 1.048 3.143 3.974 5.13 7.114 5.13.786 0 1.586-.125 2.373-.387l30-10c3.063-1.021 5.128-3.887 5.128-7.115v-154.576c6.824 3.251 14.452 5.076 22.5 5.076s15.676-1.825 22.5-5.076v154.576c0 3.228 2.065 6.094 5.128 7.115l30 10c.787.262 1.587.387 2.373.387 3.141 0 6.066-1.988 7.114-5.13 1.31-3.93-.813-8.177-4.743-9.487zm-102.372-317.385h80c6.893 0 12.5 5.607 12.5 12.5v85c0 4.136-3.364 7.5-7.5 7.5h-90c-4.136 0-7.5-3.364-7.5-7.5v-85c0-6.893 5.607-12.5 12.5-12.5zm3.255 120h73.491c-3.484 17.096-18.635 30-36.745 30s-33.262-12.904-36.746-30z"/><path d="m331.002 75h22.5v22.5c0 4.142 3.357 7.5 7.5 7.5h30c4.143 0 7.5-3.358 7.5-7.5v-22.5h22.5c4.143 0 7.5-3.358 7.5-7.5v-30c0-4.142-3.357-7.5-7.5-7.5h-22.5v-22.5c0-4.142-3.357-7.5-7.5-7.5h-30c-4.143 0-7.5 3.358-7.5 7.5v22.5h-22.5c-4.143 0-7.5 3.358-7.5 7.5v30c0 4.142 3.357 7.5 7.5 7.5zm7.5-30h22.5c4.143 0 7.5-3.358 7.5-7.5v-22.5h15v22.5c0 4.142 3.357 7.5 7.5 7.5h22.5v15h-22.5c-4.143 0-7.5 3.358-7.5 7.5v22.5h-15v-22.5c0-4.142-3.357-7.5-7.5-7.5h-22.5z"/><path d="m158.502 150.002c28.948 0 52.5-23.551 52.5-52.5s-23.552-52.5-52.5-52.5-52.5 23.551-52.5 52.5 23.552 52.5 52.5 52.5zm25.799-79.677c-.755.891-1.718 1.601-2.837 2.066-2.249.932-4.738.721-6.832-.575-3.354-2.078-7.742-1.202-10.044 2.003-1.428 1.991-3.646 3.132-6.086 3.132s-4.658-1.142-6.086-3.132c-2.301-3.205-6.688-4.083-10.044-2.003-2.092 1.296-4.583 1.506-6.819.581-1.126-.468-2.093-1.18-2.849-2.072 6.728-6.389 15.81-10.323 25.798-10.323 9.989 0 19.071 3.933 25.799 10.323zm-60.269 12.422c1.719 1.437 3.659 2.626 5.772 3.505 4.716 1.952 9.924 2.208 14.747.838 3.931 3.106 8.843 4.861 13.951 4.861s10.021-1.755 13.951-4.861c4.821 1.367 10.034 1.11 14.76-.844 2.107-.877 4.043-2.064 5.76-3.499 1.947 4.531 3.029 9.518 3.029 14.754 0 20.678-16.822 37.5-37.5 37.5s-37.5-16.822-37.5-37.5c0-5.236 1.082-10.223 3.03-14.754z"/></g></svg>