<svg height="512pt" viewBox="0 0 512 512" width="512pt" xmlns="http://www.w3.org/2000/svg"><path d="m455.929688 502h46.070312v-95.183594h-85.578125" fill="#d38a5a"/><path d="m10 461.660156v40.339844h445.929688c0-14.070312-2.203126-27.625-6.277344-40.339844" fill="#fcc595"/><path d="m218.949219 461.660156h230.703125c-17.046875-53.21875-66.929688-91.75-125.8125-91.75h-313.839844v91.75" fill="#db9970"/><path d="m357.03125 420.320312c-.660156 0-1.3125-.070312-1.960938-.199218-.640624-.132813-1.269531-.320313-1.871093-.570313-.601563-.25-1.179688-.5625-1.730469-.921875-.539062-.359375-1.058594-.777344-1.519531-1.238281-1.859375-1.859375-2.929688-4.441406-2.929688-7.070313 0-.648437.070313-1.308593.199219-1.960937.128906-.628906.320312-1.257813.570312-1.871094.25-.597656.558594-1.179687.921876-1.71875.355468-.550781.777343-1.058593 1.238281-1.519531.460937-.460938.980469-.878906 1.519531-1.25.550781-.359375 1.128906-.671875 1.730469-.921875.601562-.25 1.230469-.4375 1.867187-.566406 1.292969-.261719 2.621094-.261719 3.910156 0 .640626.128906 1.273438.316406 1.871094.566406.601563.25 1.179688.5625 1.71875.921875.550782.371094 1.0625.789062 1.523438 1.25.46875.460938.878906.96875 1.25 1.519531.359375.539063.667968 1.121094.917968 1.71875.25.613281.441407 1.242188.570313 1.871094.132813.652344.191406 1.3125.191406 1.960937 0 .648438-.0625 1.308594-.191406 1.949219s-.320313 1.269531-.570313 1.871094c-.25.609375-.558593 1.191406-.917968 1.730469-.371094.550781-.78125 1.058594-1.25 1.519531-.460938.460937-.972656.878906-1.523438 1.238281-.539062.359375-1.117187.671875-1.71875.921875-.601562.25-1.230468.4375-1.871094.570313-.636718.128906-1.296874.199218-1.945312.199218zm0 0"/><path d="m35 270.898438c16.226562 16.226562 49.882812 8.882812 49.882812 8.882812s7.34375-33.652344-8.882812-49.878906c-16.226562-16.226563-49.878906-8.882813-49.878906-8.882813s-7.347656 33.652344 8.878906 49.878907zm0 0" fill="#4ce0a1"/><path d="m138.074219 270.898438c-16.222657 16.226562-49.878907 8.882812-49.878907 8.882812s-7.34375-33.652344 8.882813-49.878906c16.226563-16.226563 49.878906-8.882813 49.878906-8.882813s7.347657 33.652344-8.882812 49.878907zm0 0" fill="#18bb7d"/><path d="m35 359.328125c16.226562 16.226563 49.882812 8.878906 49.882812 8.878906s7.34375-33.652343-8.882812-49.878906-49.878906-8.878906-49.878906-8.878906-7.347656 33.652343 8.878906 49.878906zm0 0" fill="#18bb7d"/><path d="m138.074219 359.328125c-16.222657 16.226563-49.878907 8.878906-49.878907 8.878906s-7.34375-33.652343 8.882813-49.878906 49.878906-8.878906 49.878906-8.878906 7.347657 33.652343-8.882812 49.878906zm0 0" fill="#4ce0a1"/><path d="m204.460938 270.898438c16.226562 16.226562 49.882812 8.882812 49.882812 8.882812s7.34375-33.652344-8.882812-49.878906c-16.226563-16.226563-49.878907-8.882813-49.878907-8.882813s-7.347656 33.652344 8.878907 49.878907zm0 0" fill="#4ce0a1"/><path d="m307.539062 270.898438c-16.226562 16.226562-49.878906 8.882812-49.878906 8.882812s-7.347656-33.652344 8.878906-49.878906c16.226563-16.226563 49.882813-8.882813 49.882813-8.882813s7.34375 33.652344-8.882813 49.878907zm0 0" fill="#18bb7d"/><path d="m204.460938 359.328125c16.226562 16.226563 49.882812 8.878906 49.882812 8.878906s7.34375-33.652343-8.882812-49.878906c-16.226563-16.226563-49.878907-8.878906-49.878907-8.878906s-7.347656 33.652343 8.878907 49.878906zm0 0" fill="#18bb7d"/><path d="m307.539062 359.328125c-16.226562 16.226563-49.878906 8.878906-49.878906 8.878906s-7.347656-33.652343 8.878906-49.878906c16.226563-16.226563 49.882813-8.878906 49.882813-8.878906s7.34375 33.652343-8.882813 49.878906zm0 0" fill="#4ce0a1"/><path d="m373.925781 268.351562c16.222657 16.226563 49.878907 8.882813 49.878907 8.882813s7.34375-33.652344-8.882813-49.878906c-16.226563-16.226563-49.878906-8.882813-49.878906-8.882813s-7.34375 33.652344 8.882812 49.878906zm0 0" fill="#4ce0a1"/><path d="m477 268.351562c-16.226562 16.226563-49.878906 8.882813-49.878906 8.882813s-7.347656-33.652344 8.882812-49.878906c16.222656-16.226563 49.878906-8.882813 49.878906-8.882813s7.34375 33.652344-8.882812 49.878906zm0 0" fill="#18bb7d"/><path d="m373.925781 356.777344c16.222657 16.226562 49.878907 8.882812 49.878907 8.882812s7.34375-33.652344-8.882813-49.878906-49.878906-8.882812-49.878906-8.882812-7.34375 33.65625 8.882812 49.878906zm0 0" fill="#18bb7d"/><path d="m477 356.777344c-16.226562 16.226562-49.878906 8.882812-49.878906 8.882812s-7.347656-33.652344 8.882812-49.878906c16.222656-16.226562 49.878906-8.882812 49.878906-8.882812s7.34375 33.65625-8.882812 49.878906zm0 0" fill="#4ce0a1"/><path d="m502 396.816406h-66.539062v-19.84375c2.675781.246094 5.722656.417969 8.992187.417969 12.648437 0 28.65625-2.582031 39.617187-13.539063 19.527344-19.527343 12.449219-55.09375 11.582032-59.085937-.835938-3.820313-3.820313-6.800781-7.640625-7.636719-3.574219-.78125-32.527344-6.546875-52.550781 6.332032v-14.917969c2.675781.246093 5.71875.417969 8.992187.417969 12.644531 0 28.65625-2.578126 39.617187-13.539063 19.523438-19.527344 12.449219-55.09375 11.578126-59.082031-.832032-3.820313-3.816407-6.804688-7.636719-7.640625-3.992188-.871094-39.558594-7.945313-59.082031 11.582031-1.265626 1.265625-2.417969 2.597656-3.46875 3.984375-1.050782-1.386719-2.203126-2.71875-3.46875-3.984375-19.527344-19.527344-55.09375-12.453125-59.082032-11.582031-3.820312.832031-6.804687 3.816406-7.640625 7.640625-.871093 3.988281-7.945312 39.554687 11.582031 59.082031 10.960938 10.960937 26.96875 13.539063 39.617188 13.539063 3.269531 0 6.316406-.171876 8.992188-.417969v14.917969c-20.023438-12.878907-48.976563-7.113282-52.554688-6.332032-3.816406.832032-6.804688 3.816406-7.636719 7.636719-.871093 3.992187-7.945312 39.558594 11.582031 59.085937 1.6875 1.6875 3.5 3.179688 5.398438 4.492188-15.355469-5.566406-31.664062-8.433594-48.410156-8.433594h-4.015625c12.917969-20.023437 7.144531-49.015625 6.363281-52.59375-.835938-3.820312-3.820312-6.804687-7.640625-7.640625-3.574219-.78125-32.523437-6.542969-52.550781 6.335938v-14.917969c2.675781.242188 5.722656.414062 8.992187.414062 12.648438 0 28.660157-2.578124 39.617188-13.539062 19.527343-19.527344 12.449219-55.089844 11.578125-59.082031-.832032-3.820313-3.816406-6.804688-7.636719-7.636719-3.992187-.871094-39.558594-7.945312-59.082031 11.578125-1.265625 1.265625-2.417969 2.601563-3.46875 3.988281-1.050782-1.386718-2.203125-2.71875-3.46875-3.984375-19.527344-19.527343-55.089844-12.453125-59.082032-11.582031-3.820312.832031-6.804687 3.816406-7.636718 7.636719-.871094 3.992187-7.949219 39.558593 11.578125 59.085937 10.960937 10.957032 26.96875 13.539063 39.617187 13.539063 3.269532 0 6.316406-.175781 8.992188-.417969v14.917969c-20.023438-12.882813-48.972656-7.117188-52.550782-6.335938-3.820312.835938-6.804687 3.816407-7.640624 7.640625-.78125 3.578125-6.554688 32.570313 6.363281 52.59375h-41.808594c12.917969-20.023437 7.144531-49.015625 6.363281-52.59375-.832031-3.820312-3.816406-6.804687-7.636718-7.640625-3.578126-.78125-32.527344-6.542969-52.554688 6.335938v-14.917969c2.675781.242188 5.722656.414062 8.992188.414062 12.648437 0 28.660156-2.578124 39.617187-13.539062 19.527344-19.527344 12.453125-55.089844 11.582031-59.082031-.835937-3.820313-3.820312-6.804688-7.640625-7.636719-3.988281-.871094-39.554687-7.945312-59.082031 11.578125-1.265625 1.265625-2.417969 2.597656-3.46875 3.984375-1.050781-1.382812-2.203125-2.71875-3.46875-3.984375-19.523438-19.523437-55.089844-12.449219-59.082031-11.578125-3.820313.832031-6.804688 3.816406-7.636719 7.636719-.871094 3.992187-7.945312 39.554687 11.578125 59.082031 10.960937 10.960938 26.972656 13.539062 39.617187 13.539062 3.273438 0 6.316407-.171874 8.992188-.414062v14.914062c-20.023438-12.875-48.972656-7.113281-52.550781-6.332031-3.820313.835938-6.804688 3.816407-7.636719 7.640625-.78125 3.578125-6.558594 32.570313 6.359375 52.59375h-12.703125c-5.523438 0-10 4.480469-10 10v132.089844c0 5.523438 4.476562 10 10 10h492c5.523438 0 10-4.476562 10-10v-95.183594c0-5.523437-4.476562-10-10-10zm-24.890625-81.15625c1.023437 10.078125.746094 26.121094-7.183594 34.046875-7.957031 7.957031-23.839843 8.253907-34.035156 7.191407-.1875-1.851563-.332031-3.902344-.394531-6.066407.042968-1.507812.046875-3.070312.011718-4.679687.277344-8.550782 2.109376-17.847656 7.5625-23.300782 7.960938-7.957031 23.84375-8.25 34.039063-7.191406zm0-88.425781c1.023437 10.074219.746094 26.117187-7.183594 34.046875-7.957031 7.957031-23.839843 8.25-34.035156 7.1875-.1875-1.847656-.332031-3.894531-.394531-6.058594.042968-1.507812.046875-3.078125.011718-4.695312.277344-8.546875 2.109376-17.835938 7.5625-23.289063 7.960938-7.960937 23.847657-8.253906 34.039063-7.191406zm-96.113281 34.046875c-7.960938-7.957031-8.253906-23.84375-7.191406-34.039062 10.078124-1.019532 26.117187-.746094 34.046874 7.183593 5.375 5.375 7.253907 14.363281 7.578126 22.773438-.058594 1.9375-.046876 3.816406.007812 5.601562-.074219 2.011719-.214844 3.921875-.398438 5.667969-10.203124 1.0625-26.085937.769531-34.042968-7.1875zm-7.191406 54.382812c10.207031-1.0625 26.085937-.769531 34.046874 7.1875 5.375 5.375 7.253907 14.363282 7.578126 22.773438-.058594 1.941406-.046876 3.816406.007812 5.609375-.074219 2.003906-.214844 3.914063-.394531 5.65625-10.074219 1.019531-26.121094.746094-34.046875-7.183594-7.960938-7.960937-8.253906-23.847656-7.191406-34.042969zm32.664062 61.726563c3.273438 0 6.316406-.171875 8.992188-.417969v16.414063c-2.289063-1.929688-4.644532-3.792969-7.070313-5.589844-6.378906-4.730469-13.074219-8.886719-20.023437-12.441406 6.207031 1.527343 12.484374 2.035156 18.101562 2.035156zm-309.929688 22.925781v-20.40625h149.460938v20.40625zm211.117188-82.105468c1.0625 10.203124.769531 26.085937-7.191406 34.046874-7.957032 7.957032-23.84375 8.25-34.035156 7.1875-.1875-1.847656-.332032-3.902343-.394532-6.066406.039063-1.503906.046875-3.070312.007813-4.675781.277343-8.550781 2.113281-17.847656 7.566406-23.300781 7.960937-7.960938 23.847656-8.253906 34.046875-7.191406zm-.007812-88.429688c1.023437 10.078125.746093 26.121094-7.183594 34.046875-7.957032 7.957031-23.839844 8.253906-34.035156 7.191406-.1875-1.851562-.332032-3.90625-.394532-6.074219.039063-1.5.046875-3.0625.007813-4.667968.277343-8.550782 2.109375-17.847656 7.566406-23.304688 7.960937-7.957031 23.847656-8.253906 34.039063-7.191406zm-96.117188 34.046875c-7.957031-7.957031-8.25-23.839844-7.1875-34.039063 10.078125-1.019531 26.117188-.742187 34.046875 7.183594 5.378906 5.378906 7.253906 14.375 7.578125 22.792969-.054688 1.925781-.046875 3.789063.007812 5.570313-.074218 2.015624-.214843 3.929687-.398437 5.679687-10.203125 1.0625-26.085937.769531-34.046875-7.1875zm-7.1875 54.382813c10.203125-1.0625 26.089844-.769532 34.046875 7.1875 5.375 5.378906 7.253906 14.375 7.578125 22.789062-.054688 1.929688-.046875 3.796875.007812 5.578125-.070312 2.011719-.214843 3.925781-.394531 5.671875-10.078125 1.023438-26.121093.746094-34.046875-7.183594-7.960937-7.957031-8.253906-23.847656-7.191406-34.042968zm-66.15625 0c1.023438 10.074218.746094 26.117187-7.183594 34.046874-7.957031 7.957032-23.84375 8.25-34.035156 7.1875-.191406-1.84375-.332031-3.890624-.394531-6.050781.039062-1.515625.046875-3.089843.007812-4.714843.28125-8.542969 2.117188-17.828126 7.566407-23.28125 7.960937-7.957032 23.84375-8.25 34.039062-7.1875zm0-88.429688c1.023438 10.078125.746094 26.121094-7.183594 34.046875-7.957031 7.957031-23.84375 8.253906-34.035156 7.191406-.191406-1.847656-.332031-3.894531-.394531-6.054687.039062-1.511719.046875-3.085938.007812-4.707032.28125-8.546874 2.117188-17.835937 7.566407-23.285156 7.960937-7.957031 23.847656-8.253906 34.039062-7.191406zm-96.117188 34.046875c-7.957031-7.957031-8.25-23.839844-7.1875-34.039063 10.074219-1.019531 26.117188-.742187 34.046876 7.183594 5.375 5.375 7.253906 14.367188 7.578124 22.78125-.058593 1.933594-.050781 3.804688.003907 5.589844-.070313 2.011719-.210938 3.921875-.394531 5.667969-10.074219 1.019531-26.117188.746093-34.046876-7.183594zm-7.1875 54.382813c10.203126-1.0625 26.085938-.769532 34.046876 7.1875 5.375 5.378906 7.253906 14.371093 7.578124 22.78125-.058593 1.933593-.050781 3.804687.003907 5.589843-.070313 2.011719-.210938 3.925781-.394531 5.675781-10.203126 1.058594-26.085938.769532-34.042969-7.191406-7.964844-7.957031-8.253907-23.847656-7.191407-34.042968zm41.65625 61.699218v20.40625h-56.539062v-20.40625zm-56.539062 112.089844v-71.683594h297.144531c5.519531 0 10-4.476562 10-10 0-5.519531-4.480469-10-10-10h-51.144531v-20.40625h57.839844c48.59375 0 91.726562 28.320313 111.28125 71.75h-216.171875c-5.523438 0-10 4.476563-10 10 0 5.523438 4.476562 10 10 10h223.179687c1.703125 6.65625 2.839844 13.457032 3.394532 20.339844zm472 0h-26.417969c-.792969-11.375-2.9375-22.566406-6.40625-33.390625 0-.007813 0-.011719-.003906-.015625-4.867187-15.191406-12.144531-29.25-21.539063-41.777344h54.367188zm0 0"/><path d="m108.496094 47.785156c-5.449219-21.710937-25.097656-37.785156-48.496094-37.785156-27.613281 0-50 22.386719-50 50 0 16.574219 8.066406 31.269531 20.488281 40.363281" fill="#ffd170"/><path d="m280.5625 121.578125c0-32.078125-26.003906-58.082031-58.082031-58.082031-7.035157 0-13.773438 1.25-20.011719 3.539062-12.902344-17.777344-33.832031-29.347656-57.476562-29.347656-27.832032 0-51.910157 16.027344-63.546876 39.347656-2.429687-.351562-4.914062-.542968-7.441406-.542968-28.488281 0-51.585937 23.097656-51.585937 51.585937h257.773437c.238282-2.132813.371094-4.300781.371094-6.5zm0 0" fill="#4bc6ff"/><path d="m222.480469 53.496094c-5.582031 0-11.085938.667968-16.433594 1.996094-15.304687-17.523438-37.632813-27.804688-61.054687-27.804688-10.875 0-21.363282 2.132812-30.992188 6.097656-9.855469-20.367187-30.621094-33.785156-54-33.785156-33.085938 0-60 26.914062-60 60 0 16.101562 6.5625 31.527344 17.882812 42.722656-3.507812 7.738282-5.460937 16.324219-5.460937 25.355469 0 5.523437 4.476563 10 10 10h257.769531c5.09375 0 9.375-3.828125 9.941406-8.890625.285157-2.574219.429688-5.132812.429688-7.609375 0-37.539063-30.542969-68.082031-68.082031-68.082031zm-202.480469 6.503906c0-22.054688 17.945312-40 40-40 16.03125 0 30.222656 9.460938 36.546875 23.691406-8.175781 6.113282-15.230469 13.8125-20.707031 22.828125-.613282-.015625-1.226563-.027343-1.835938-.027343-17.550781 0-33.414062 7.382812-44.640625 19.203124-5.96875-7.136718-9.363281-16.242187-9.363281-25.695312zm13.636719 58.078125c4.484375-18.117187 20.882812-31.585937 40.367187-31.585937 1.976563 0 4 .148437 6.011719.441406 4.265625.617187 8.453125-1.574219 10.378906-5.433594 10.40625-20.855469 31.328125-33.8125 54.597657-33.8125 19.460937 0 37.921874 9.429688 49.386718 25.222656 2.625 3.621094 7.339844 5.054688 11.535156 3.515625 5.292969-1.945312 10.867188-2.929687 16.566407-2.929687 25.335937 0 46.160156 19.695312 47.957031 44.582031zm0 0"/></svg>